<svg xmlns="http://www.w3.org/2000/svg" width="36" height="50" fill="none"><path d="M24.091 0c.99.063 1.985.083 2.97.198 2.004.23 4.01.463 5.998.798.768.13 1.52.475 2.221.835.7.36.837.816.626 1.588a44.638 44.638 0 0 1-7.067 14.739c-.085.115-.158.238-.251.377.64.175 1.26.309 1.856.521.461.155.902.366 1.313.628.73.477.842 1.132.436 1.903-.957 1.823-1.688 3.724-1.864 5.808-.093 1.076.197 2.006.772 2.902.966 1.504 1.94 3.006 2.815 4.564a10.152 10.152 0 0 1 1.312 4.45c.142 2.67-.98 4.804-2.93 6.53-2.72 2.41-5.936 3.705-9.54 4.068-.175.018-.349.06-.522.091H20.08c-1.103-.195-2.222-.313-3.307-.599-3.122-.827-5.874-2.31-7.96-4.839a7.33 7.33 0 0 1-1.71-5.395c.024-.301-.09-.435-.319-.575-1.098-.669-2.238-1.283-3.267-2.049a14.179 14.179 0 0 1-2.448-2.285C.012 32.975-.25 31.44.234 29.838c.784-2.596 2.396-4.47 5.04-5.27 1.886-.572 3.802-.41 5.683.155.152.045.304.095.597.187-.365-.904-.685-1.71-1.02-2.509-.119-.284-.27-.555-.414-.828-.422-.803-.319-1.504.482-1.915.843-.433 1.781-.678 2.68-1 .15-.045.301-.082.454-.111-.523-.77-1.045-1.498-1.537-2.242A44.162 44.162 0 0 1 6.385 3.322c-.174-.651-.07-1.073.523-1.413A8.556 8.556 0 0 1 8.83 1.09c2.065-.574 4.195-.747 6.325-.897C16.177.121 17.2.064 18.222 0h5.87ZM10.24 34.556c-.392.898-.8 1.712-1.108 2.563-1.083 2.981-.373 5.506 1.984 7.618 5.47 4.906 14.688 4.879 20.139-.048 2.602-2.352 2.98-5.209 1.643-8.334a.733.733 0 0 0-.33-.381c-1.137-.477-2.27-.974-3.434-1.378-2.633-.911-5.197-.748-7.71.507-3.253 1.622-6.546 1.608-9.833.057-.407-.193-.828-.37-1.348-.604h-.003Zm.886-1.346c.38.178.716.33 1.046.493 2.905 1.415 5.795 1.376 8.689-.048 3.277-1.616 6.573-1.621 9.874-.06.273.13.547.251.822.376a17.125 17.125 0 0 0-1.392-2.247c-1.009-1.386-1.634-2.884-1.376-4.64.116-.782.261-1.572.444-2.344.153-.634.392-1.246.607-1.918a43.239 43.239 0 0 1-17.357 0c.239.765.465 1.46.671 2.159.742 2.52.554 4.88-1.193 6.982-.307.374-.54.805-.832 1.247h-.003ZM8.428 4.655a.122.122 0 0 0 .008.08c.857 2.138 1.718 4.275 2.582 6.41a.652.652 0 0 0 .302.289c.48.24.962.479 1.458.68 2.83 1.139 5.587.968 8.293-.432 2.23-1.155 4.61-1.342 7.035-.866.976.192 1.91.593 2.875.903.857-1.36 2.886-6.429 2.86-7.052a75.042 75.042 0 0 1-25.413-.012Zm21.79 8.558c-.24-.12-.421-.227-.613-.305-2.678-1.086-5.346-1.082-7.937.222a11.511 11.511 0 0 1-5.547 1.283 10.64 10.64 0 0 1-3.723-.758c.039.096.082.189.13.28 1.753 2.965 3.85 5.642 6.545 7.812.265.199.584.315.915.334.844.043 1.699.022 2.539 0a.94.94 0 0 0 .53-.177c2.992-2.361 5.245-5.34 7.162-8.69Zm3.878-10.4c-.74-.175-1.363-.35-1.995-.464-3.462-.621-6.962-.768-10.47-.781-3.816-.016-7.627.11-11.397.781-.642.115-1.272.294-1.908.444 4.817 1.83 21.56 1.73 25.77.02ZM7.981 35.682c-.784-.48-1.56-.902-2.275-1.406a15.263 15.263 0 0 1-1.96-1.6c-.568-.561-.714-1.302-.468-2.083a4.707 4.707 0 0 1 1.214-2.03c1.307-1.253 2.89-1.423 4.555-1.064.978.21 1.925.561 2.912.855 0-.39-.01-.81 0-1.227.009-.288-.106-.459-.392-.528-1.046-.254-2.069-.597-3.123-.751-3.02-.436-5.698 1.279-6.647 4.167-.425 1.29-.261 2.5.653 3.515a12.06 12.06 0 0 0 1.937 1.714c.97.693 2.011 1.284 3.055 1.94l.539-1.501Zm3.426-5.768c-1.21-.55-2.42-.99-3.745-1.006-1.24-.016-2.146.52-2.695 1.652-.334.685-.342.983.27 1.433 1.093.807 2.242 1.537 3.366 2.298l2.804-4.377Zm19.261-9.09a9.891 9.891 0 0 0-3.142-.85.294.294 0 0 0-.22.067c-.58.596-1.154 1.199-1.762 1.836 1.44.023 4.108-.524 5.124-1.054Zm-13.852 1.094c-.641-.673-1.194-1.256-1.756-1.833a.358.358 0 0 0-.25-.11 9.184 9.184 0 0 0-3.186.88c1.683.684 3.37.895 5.187 1.063h.005Z" fill="#B98D58"/><path d="M34.096 2.813c-4.21 1.71-20.953 1.81-25.77-.023.636-.15 1.266-.329 1.908-.444 3.77-.67 7.58-.795 11.398-.78 3.507.013 7.007.16 10.468.78.633.116 1.255.292 1.996.467ZM11.407 29.915l-2.804 4.38c-1.124-.76-2.273-1.49-3.365-2.298-.613-.453-.605-.751-.27-1.432.548-1.126 1.454-1.668 2.694-1.652 1.325.013 2.535.451 3.745 1.002Z" fill="#fff"/><path d="M20.38 26.147a3.06 3.06 0 0 1 0-.439c.065-.424.32-.671.75-.701a.762.762 0 0 1 .796.701c.02.26.023.521.009.782-.019.52-.35.867-.807.851-.457-.015-.734-.346-.755-.851v-.342h.008ZM20.375 30.078c0-.8.244-1.172.777-1.172s.784.371.784 1.164c0 .793-.248 1.172-.784 1.172s-.777-.368-.777-1.164Z" fill="#B98D58"/></svg>