<svg xmlns="http://www.w3.org/2000/svg" width="61" height="70" fill="none"><g clip-path="url(#a)" fill="#B98D58"><path d="M37.18 0c.482.111.966.211 1.442.334a10.905 10.905 0 0 1 5.904 3.864 10.956 10.956 0 0 1 2.313 6.68c.017 1.935-.01 3.871.019 5.807 0 .306.194.61.307.912.253.69.653 1.363.727 2.074.124 1.094.051 2.23.027 3.345a3.265 3.265 0 0 1-.946 2.273c-.6.605-1.412.95-2.262.961-.748.02-1.498-.024-2.244.024a.76.76 0 0 0-.545.397 13.254 13.254 0 0 1-2.418 4.242c-.17.23-.263.507-.264.793-.023 1.732 0 3.463-.025 5.195-.01.472.143.667.578.819 4.705 1.64 9.395 3.316 14.106 4.938 3.685 1.276 6.047 3.73 6.894 7.574.141.715.208 1.441.2 2.17.02 3.099.009 6.197.009 9.296 0 1.495-.235 1.729-1.735 1.747-.112 0-.225.01-.443.02v1.197c0 1.255-.031 2.509.013 3.76.023.668-.142 1.197-.693 1.585h-.816c-.546-.386-.717-.911-.693-1.584.042-1.252.01-2.505.01-3.759v-1.19h-6.537c0 1.672-.025 3.307.013 4.94.016.67-.142 1.198-.693 1.586h-.816c-.545-.386-.707-.912-.693-1.584.037-1.797.013-3.597.013-5.396v-4.169a8.956 8.956 0 0 1-4.354-2.734 9.14 9.14 0 0 1-2.12-4.678h-21.91a8.874 8.874 0 0 1-2.105 4.693 8.836 8.836 0 0 1-4.35 2.73c0 3.221-.016 6.38.013 9.548 0 .668-.142 1.196-.693 1.585h-.816c-.545-.387-.716-.912-.692-1.585.041-1.252.01-2.504.01-3.758v-1.178H4.383c0 1.672-.025 3.307.015 4.94.014.67-.144 1.198-.695 1.586h-.816c-.555-.386-.709-.912-.693-1.584.038-1.64.013-3.272.013-4.984-.413 0-.77.024-1.123 0-.599-.046-1.031-.39-1.031-.983 0-3.85-.182-7.716.132-11.54.335-4.01 2.76-6.707 6.507-8.074 4.809-1.757 9.652-3.418 14.48-5.1.495-.172.648-.402.637-.912-.035-1.708 0-3.418-.027-5.126a1.46 1.46 0 0 0-.311-.844 11.976 11.976 0 0 1-2.318-4.138c-.12-.381-.302-.487-.676-.472-.728.027-1.455.022-2.182 0a3.25 3.25 0 0 1-2.262-.962c-.6-.604-.94-1.42-.947-2.272-.022-1.116-.096-2.242.03-3.345.08-.71.483-1.38.737-2.071.111-.303.298-.609.302-.912.027-2.233 0-4.466.016-6.699.015-3.237 2-5.766 5.122-6.562.182-.044.429-.148.47-.28.56-1.682 1.79-2.619 3.41-3.14H37.18ZM20.735 14.093v9.623c.015.43.076.858.181 1.276 1.091 4.935 5.66 8.324 10.492 7.782 5.149-.578 8.863-4.697 8.887-9.87.009-2.23 0-4.462 0-6.693v-.88c-.253-.022-.431-.042-.61-.053-4.712-.279-9.259-1.129-13.282-3.828a.569.569 0 0 0-.503.034 14.824 14.824 0 0 1-5.165 2.609Zm-2.198 2.282v-1.55c0-.524-.01-1.047 0-1.57.018-.757.363-1.116 1.09-1.23.511-.08 1.07-.125 1.504-.364a77.54 77.54 0 0 0 4.163-2.535c.71-.46 1.013-.445 1.715 0 1.181.749 2.363 1.533 3.636 2.085 3.3 1.416 6.799 1.863 10.359 1.914 1.154.016 1.481.348 1.483 1.52v1.727h2.156c0-2.059.104-4.085-.02-6.1-.269-4.375-3.938-7.97-8.23-8.055-4.145-.084-8.294-.033-12.442-.019-1.148 0-2 .839-2.142 1.984-.12.995-.364 1.227-1.376 1.3a4.337 4.337 0 0 0-2.563 1.056 4.357 4.357 0 0 0-1.404 2.394 1.425 1.425 0 0 0-.058.266v7.18l2.128-.003Zm25.04 24.994v8.767c.008 3.367 2.028 5.915 5.293 6.695.982.234 1.235.547 1.236 1.557v2.826h8.71v-8.84c0-3.576-1.956-6.338-5.317-7.53-2.817-1-5.636-1.995-8.458-2.984-.463-.16-.93-.312-1.465-.49Zm-32.66 19.87v-2.975c0-.911.247-1.212 1.131-1.409 3.307-.73 5.389-3.329 5.4-6.745v-8.059c0-.199-.019-.395-.03-.63a2.931 2.931 0 0 0-.363.078c-3.225 1.13-6.46 2.235-9.67 3.401-3.285 1.19-5.17 3.954-5.178 7.482v8.863l8.71-.006Zm13.09-12.068h12.999v-8.547c-2.036 1.25-4.169 1.905-6.492 1.908-2.324.004-4.473-.692-6.507-1.914v8.553Zm-.018-16.07c0 1.527-.011 2.98.014 4.431a.88.88 0 0 0 .317.547c3.423 2.986 8.937 2.993 12.382.022.144-.124.327-.31.331-.47.026-1.49.015-2.977.015-4.5-5.75 2.514-7.876 2.513-13.067-.032l.008.002ZM21.785 49.19v-9.337c-.53.182-1.012.364-1.51.497-.499.133-.668.365-.657.912.038 1.844.015 3.69.015 5.534v2.4l2.152-.006Zm17.493-9.336v9.334h2.127v-8.284a.48.48 0 0 0-.201-.364c-.64-.254-1.28-.461-1.933-.687l.007.001Zm-20.756-21.26c-.758 0-1.436-.017-2.113 0-.676.016-1.114.42-1.129 1.093a76.046 76.046 0 0 0 0 3.282c.013.603.364 1.011.953 1.059.758.06 1.524.014 2.289.014v-5.448Zm23.998 5.468c.749 0 1.47.03 2.181 0 .628-.032 1.02-.413 1.04-1.044.035-1.114.03-2.23 0-3.343a.998.998 0 0 0-.583-.958.988.988 0 0 0-.384-.087c-.736-.054-1.482-.013-2.263-.013l.009 5.445Z"/><path d="M24.201 61.432c.204-3.068 1.404-5.48 4.038-7.018 3.102-1.812 6.689-.547 8.036 2.798 1.478 3.668-.296 8.295-3.818 9.935-3.59 1.675-7.272-.182-8.06-4.094-.106-.552-.134-1.125-.195-1.62Zm3.38 3.214c1.796-1.075 2.23-2.06 1.806-4.01a4.433 4.433 0 0 1 .256-2.871c.303-.662.727-1.276 1.107-1.936-1.876.4-3.152 1.487-3.878 3.26-.809 1.979-.64 3.82.71 5.559v-.002Zm2.529.943c2.383-.469 3.645-1.89 4.276-3.941.545-1.787.238-3.424-.958-4.88-1.56.946-2.254 2.074-1.91 3.401.523 2.022.108 3.76-1.408 5.422v-.002Z"/></g><defs><clipPath id="a"><path fill="#fff" d="M0 0h61v70H0z"/></clipPath></defs></svg>