<svg xmlns="http://www.w3.org/2000/svg" width="86" height="70" fill="none"><path d="M73.798 33.636c-.282 1.268-.433 2.586-.87 3.803-1.945 5.398-5.592 9.075-11.379 10.5-.771.19-1.296-.069-1.43-.676-.12-.542.234-.977.94-1.153a14.34 14.34 0 0 0 7.304-4.422 13.82 13.82 0 0 0 3.391-7.72c.284-2.623-.138-5.088-1.62-7.329-.305-.46-.686-.871-1.007-1.267-1.15.59-2.269 1.084-3.314 1.711-2.781 1.675-4.08 4.146-3.83 7.34.151 1.923-.085 3.75-1.016 5.467-.353.65-.883.88-1.418.606-.51-.26-.648-.814-.324-1.435.773-1.434.972-2.954.81-4.548a9.335 9.335 0 0 1 1.23-5.572 9.64 9.64 0 0 1 4.268-3.883c.615-.287 1.218-.602 1.92-.951a7.867 7.867 0 0 0-3.541-1.168c-3.374-.282-6.231.918-8.677 3.09-.928.834-1.695 1.854-2.49 2.821-.362.44-.748.666-1.296.461a.934.934 0 0 1-.347-.238.908.908 0 0 1-.223-.778.906.906 0 0 1 .17-.38c2.431-3.558 5.651-6.033 10.04-6.75 6.72-1.1 11.83 3.448 12.592 9.701.026.21.08.42.12.634l-.003 2.136ZM40.89 24.574c-.436 7.237-3.291 13.128-9.872 16.7-4.322 2.347-8.773 2.38-12.992-.394-3.157-2.074-4.91-5.146-5.667-8.783-1.638-7.84 1.976-16.03 8.84-20.142 7.013-4.203 15.372-1.396 18.433 6.185a17.635 17.635 0 0 1 1.258 6.434ZM32.174 12.78c-.437-.16-.69-.271-.955-.352-3.454-1.036-6.666-.387-9.605 1.559-4.823 3.197-7.28 7.82-7.678 13.516-.215 3.017.377 5.92 2.016 8.535a11.098 11.098 0 0 0 2.937 3.119c.875-.687 1.664-1.379 2.526-1.96 3.712-2.508 5.181-6.326 4.035-10.628a11.163 11.163 0 0 1 .348-6.918 11.208 11.208 0 0 1 4.363-5.39c.644-.427 1.253-.92 2.013-1.48Zm1.776 1c-.88.686-1.645 1.427-2.538 1.952-3.358 1.97-5.248 6.578-4.05 10.648 1.13 3.835.133 7.321-2.432 10.334-.645.768-1.53 1.35-2.325 1.994-.596.483-1.222.922-1.937 1.447.344.132.526.211.713.274 3.135 1.053 6.133.593 8.966-.955 6.37-3.468 9.923-11.709 8.122-18.737-.723-2.84-2.132-5.224-4.52-6.956Z" fill="#B98D58"/><path d="M49.643 57.104a9.856 9.856 0 0 0 3.68-2.894c1.759-2.232 2.52-4.798 2.594-7.594.176-6.758-4.085-13.451-10.185-15.94a19.291 19.291 0 0 0-2.56-.773c-.762-.193-1.156-.603-1.018-1.185.137-.583.64-.823 1.375-.676 4.88.98 8.49 3.764 11.151 7.812 2.27 3.45 3.405 7.26 3.121 11.383-.33 4.806-2.24 8.805-6.646 11.22-3.84 2.102-7.838 1.966-11.735.142-5.708-2.675-9.012-7.279-10.45-13.274-.172-.72.132-1.22.723-1.332.59-.112.991.27 1.178 1.054 1.138 4.764 3.688 8.56 7.952 11.128 2.49 1.497 5.197 2.17 8.13 1.753.823-.117.787-.114.82-.922.048-1.14.202-2.277.237-3.418.123-3.914-1.548-6.88-5.026-8.732-2.19-1.166-3.983-2.666-5.172-4.837a3.867 3.867 0 0 1-.366-.803.914.914 0 0 1 .049-.63.93.93 0 0 1 .448-.453.95.95 0 0 1 1.167.293 5.4 5.4 0 0 1 .384.666 8.892 8.892 0 0 0 3.95 3.828c3.603 1.79 5.81 4.636 6.374 8.588.185 1.305-.032 2.665-.074 4.002-.024.49-.066.98-.1 1.594Z" fill="#B98D58"/></svg>